<svg xmlns="http://www.w3.org/2000/svg" width="1200" height="320" viewBox="0 0 1200 320" role="img" aria-labelledby="title desc">
  <title id="title">DataSum research diagnostics</title>
  <desc id="desc">DataSum wordmark beside a statistical diagnostics dashboard showing a distribution, missingness matrix, and summary metrics.</desc>
  <rect width="1200" height="320" rx="18" fill="#F7FAFC"/>
  <rect x="1" y="1" width="1198" height="318" rx="17" fill="none" stroke="#D9E2EC" stroke-width="2"/>

  <g transform="translate(54 64)">
    <rect width="112" height="112" rx="24" fill="#0F766E"/>
    <rect x="24" y="67" width="12" height="21" rx="3" fill="#FFFFFF"/>
    <rect x="43" y="46" width="12" height="42" rx="3" fill="#FFFFFF"/>
    <rect x="62" y="31" width="12" height="57" rx="3" fill="#FFFFFF"/>
    <path d="M24 34 C42 21, 60 25, 88 15" fill="none" stroke="#FBBF24" stroke-width="7" stroke-linecap="round"/>
    <circle cx="88" cy="15" r="6" fill="#FBBF24"/>
    <text x="0" y="157" font-family="Segoe UI, Arial, sans-serif" font-size="46" font-weight="700" fill="#172B4D">DataSum</text>
    <text x="0" y="190" font-family="Segoe UI, Arial, sans-serif" font-size="19" fill="#52667A">Research diagnostics you can trust.</text>
  </g>

  <g transform="translate(430 36)">
    <rect width="716" height="248" rx="14" fill="#FFFFFF" stroke="#D9E2EC" stroke-width="2"/>
    <rect width="716" height="42" rx="14" fill="#E8F5F3"/>
    <rect y="28" width="716" height="14" fill="#E8F5F3"/>
    <circle cx="24" cy="21" r="5" fill="#F97316"/>
    <circle cx="42" cy="21" r="5" fill="#FBBF24"/>
    <circle cx="60" cy="21" r="5" fill="#0F766E"/>
    <text x="90" y="27" font-family="Segoe UI, Arial, sans-serif" font-size="14" font-weight="600" fill="#172B4D">Dataset profile</text>

    <g transform="translate(22 62)">
      <rect width="250" height="164" rx="9" fill="#F8FAFC" stroke="#E2E8F0"/>
      <text x="16" y="25" font-family="Segoe UI, Arial, sans-serif" font-size="13" font-weight="600" fill="#52667A">Distribution</text>
      <line x1="20" y1="137" x2="230" y2="137" stroke="#CBD5E1"/>
      <rect x="30" y="108" width="19" height="29" rx="3" fill="#99D5CF"/>
      <rect x="54" y="86" width="19" height="51" rx="3" fill="#6FC2BA"/>
      <rect x="78" y="55" width="19" height="82" rx="3" fill="#3CA89E"/>
      <rect x="102" y="37" width="19" height="100" rx="3" fill="#0F766E"/>
      <rect x="126" y="48" width="19" height="89" rx="3" fill="#238E84"/>
      <rect x="150" y="76" width="19" height="61" rx="3" fill="#56B5AC"/>
      <rect x="174" y="101" width="19" height="36" rx="3" fill="#83CBC4"/>
      <rect x="198" y="119" width="19" height="18" rx="3" fill="#B4E0DC"/>
      <path d="M31 112 C58 98, 71 55, 108 43 C142 35, 165 91, 217 119" fill="none" stroke="#F97316" stroke-width="3" stroke-linecap="round"/>
    </g>

    <g transform="translate(288 62)">
      <rect width="174" height="164" rx="9" fill="#F8FAFC" stroke="#E2E8F0"/>
      <text x="16" y="25" font-family="Segoe UI, Arial, sans-serif" font-size="13" font-weight="600" fill="#52667A">Missingness</text>
      <g transform="translate(17 42)">
        <rect width="22" height="18" rx="3" fill="#0F766E"/><rect x="28" width="22" height="18" rx="3" fill="#0F766E"/><rect x="56" width="22" height="18" rx="3" fill="#F97316"/><rect x="84" width="22" height="18" rx="3" fill="#0F766E"/><rect x="112" width="22" height="18" rx="3" fill="#0F766E"/>
        <rect y="24" width="22" height="18" rx="3" fill="#0F766E"/><rect x="28" y="24" width="22" height="18" rx="3" fill="#0F766E"/><rect x="56" y="24" width="22" height="18" rx="3" fill="#0F766E"/><rect x="84" y="24" width="22" height="18" rx="3" fill="#0F766E"/><rect x="112" y="24" width="22" height="18" rx="3" fill="#0F766E"/>
        <rect y="48" width="22" height="18" rx="3" fill="#0F766E"/><rect x="28" y="48" width="22" height="18" rx="3" fill="#F97316"/><rect x="56" y="48" width="22" height="18" rx="3" fill="#0F766E"/><rect x="84" y="48" width="22" height="18" rx="3" fill="#0F766E"/><rect x="112" y="48" width="22" height="18" rx="3" fill="#0F766E"/>
        <rect y="72" width="22" height="18" rx="3" fill="#0F766E"/><rect x="28" y="72" width="22" height="18" rx="3" fill="#0F766E"/><rect x="56" y="72" width="22" height="18" rx="3" fill="#0F766E"/><rect x="84" y="72" width="22" height="18" rx="3" fill="#F97316"/><rect x="112" y="72" width="22" height="18" rx="3" fill="#0F766E"/>
      </g>
      <text x="17" y="151" font-family="Segoe UI, Arial, sans-serif" font-size="11" fill="#64748B">complete</text>
      <rect x="78" y="141" width="11" height="11" rx="2" fill="#0F766E"/>
      <text x="98" y="151" font-family="Segoe UI, Arial, sans-serif" font-size="11" fill="#64748B">missing</text>
      <rect x="146" y="141" width="11" height="11" rx="2" fill="#F97316"/>
    </g>

    <g transform="translate(478 62)">
      <rect width="216" height="48" rx="9" fill="#EFF6FF" stroke="#BFDBFE"/>
      <text x="15" y="19" font-family="Segoe UI, Arial, sans-serif" font-size="11" font-weight="600" fill="#52667A">VARIABLES</text>
      <text x="15" y="38" font-family="Segoe UI, Arial, sans-serif" font-size="21" font-weight="700" fill="#2563EB">12</text>
      <rect y="58" width="216" height="48" rx="9" fill="#ECFDF5" stroke="#A7F3D0"/>
      <text x="15" y="77" font-family="Segoe UI, Arial, sans-serif" font-size="11" font-weight="600" fill="#52667A">COMPLETE ROWS</text>
      <text x="15" y="97" font-family="Segoe UI, Arial, sans-serif" font-size="21" font-weight="700" fill="#0F766E">94.8%</text>
      <rect y="116" width="216" height="48" rx="9" fill="#FFF7ED" stroke="#FED7AA"/>
      <text x="15" y="135" font-family="Segoe UI, Arial, sans-serif" font-size="11" font-weight="600" fill="#52667A">DIAGNOSTIC FLAGS</text>
      <text x="15" y="155" font-family="Segoe UI, Arial, sans-serif" font-size="21" font-weight="700" fill="#F97316">3</text>
    </g>
  </g>
</svg>